<!-- lockup-dark: lockup-light.svg dan olingan, so'z belgisi qorong'i fon uchun yoritilgan -->
<!-- Tekislash qoidasi: so'z belgisining BOSH HARF markazi belgining
     OLD (yuqoridagi) chek qatlamining vertikal markaziga to'g'ri keladi.
     Ilgari yozuv orqa qatlamning tepasi bilan bir chiziqda edi va
     ko'zga yuqoriga siljigandek ko'rinardi.
     mark: translate(0 1.28)   wordmark baseline: 42.53 -->
<svg xmlns="http://www.w3.org/2000/svg" viewBox="0 0 244.9 62.4" width="244.9" height="62" fill="none" role="img" aria-label="E-KASSAM.UZ"><g transform="scale(1.2994)"><defs><mask id="cutl0" maskUnits="userSpaceOnUse" x="0" y="0" width="48" height="48"><rect width="48" height="48" fill="#fff"/><path d="M9 13.2a4.6 4.6 0 0 1 4.6 -4.6h14.8a4.6 4.6 0 0 1 4.6 4.6v21.4L30.00 39.00L27.00 34.60L24.00 39.00L21.00 34.60L18.00 39.00L15.00 34.60L12.00 39.00L9.00 34.60Z" fill="#000" stroke="#000" stroke-width="2.8" stroke-linejoin="round"/></mask></defs><g transform="translate(0 1.28)"><path d="M19 7.6a4.2 4.2 0 0 1 4.2 -4.2h11.6a4.2 4.2 0 0 1 4.2 4.2v20.8L35.67 32.00L32.33 28.40L29.00 32.00L25.67 28.40L22.33 32.00L19.00 28.40Z" fill="#4B87E8" mask="url(#cutl0)"/><path d="M9 13.2a4.6 4.6 0 0 1 4.6 -4.6h14.8a4.6 4.6 0 0 1 4.6 4.6v21.4L30.00 39.00L27.00 34.60L24.00 39.00L21.00 34.60L18.00 39.00L15.00 34.60L12.00 39.00L9.00 34.60Z" fill="#1663D8"/><path d="M13.6 13.2h14a1.35 1.35 0 0 1 0 2.7h-14a1.35 1.35 0 0 1 0-2.7Z" fill="#FFFFFF"/><path d="M13.6 18.1h9a1.35 1.35 0 0 1 0 2.7h-9a1.35 1.35 0 0 1 0-2.7Z" fill="#FFFFFF"/><path d="M14.1 28.9l3.4 3.4L28 21.8" stroke="#35C863" stroke-width="3.3" stroke-linecap="round" stroke-linejoin="round" fill="none"/></g></g><g transform="translate(52.0 42.53) scale(0.5308)"><g fill="#EDF1F7" transform="translate(0.00 0.00)"><path d="M3.6399999999999997 0.0V-37.44H28.08V-30.836H10.712V-22.828H24.959999999999997V-16.224H10.712V-6.604H28.08V0.0Z"/></g><g fill="#1663D8" transform="translate(30.26 0.00)"><path d="M3.1199999999999997 -13.676V-19.136H18.72V-13.676Z"/></g><g fill="#EDF1F7" transform="translate(51.69 0.00)"><path d="M3.6399999999999997 0.0V-37.44H10.712V-20.176L24.959999999999997 -37.44H33.592L17.939999999999998 -18.98L34.58 0.0H25.636L10.712 -17.056V0.0Z"/></g><g fill="#EDF1F7" transform="translate(85.85 0.00)"><path d="M1.04 0.0 12.479999999999999 -37.44H23.035999999999998L34.476 0.0H27.195999999999998L17.003999999999998 -33.019999999999996H18.355999999999998L8.32 0.0ZM7.904 -7.8V-14.404H27.663999999999998V-7.8Z"/></g><g fill="#EDF1F7" transform="translate(120.95 0.00)"><path d="M17.784 0.7799999999999999Q13.623999999999999 0.7799999999999999 10.283 -0.6890000000000001Q6.941999999999999 -2.158 4.797 -4.901Q2.6519999999999997 -7.643999999999999 2.08 -11.44L9.464 -12.532Q10.244 -9.308 12.687999999999999 -7.566Q15.132 -5.824 18.252 -5.824Q19.994 -5.824 21.631999999999998 -6.369999999999999Q23.27 -6.9159999999999995 24.323 -7.981999999999999Q25.375999999999998 -9.048 25.375999999999998 -10.607999999999999Q25.375999999999998 -11.18 25.207 -11.713Q25.038 -12.245999999999999 24.648 -12.713999999999999Q24.258 -13.181999999999999 23.543 -13.597999999999999Q22.828 -14.014 21.736 -14.351999999999999L12.011999999999999 -17.212Q10.92 -17.524 9.477 -18.096Q8.033999999999999 -18.668 6.6819999999999995 -19.734Q5.33 -20.8 4.433 -22.555Q3.536 -24.31 3.536 -26.988Q3.536 -30.758 5.434 -33.254Q7.332 -35.75 10.504 -36.971999999999994Q13.676 -38.193999999999996 17.524 -38.168Q21.398 -38.116 24.439999999999998 -36.842Q27.482 -35.568 29.536 -33.137Q31.59 -30.706 32.5 -27.195999999999998L24.855999999999998 -25.895999999999997Q24.439999999999998 -27.715999999999998 23.322 -28.964Q22.204 -30.212 20.657 -30.862Q19.11 -31.511999999999997 17.419999999999998 -31.564Q15.755999999999998 -31.616 14.286999999999999 -31.109Q12.818 -30.602 11.895 -29.64Q10.972 -28.677999999999997 10.972 -27.352Q10.972 -26.13 11.725999999999999 -25.363Q12.479999999999999 -24.596 13.623999999999999 -24.128Q14.767999999999999 -23.66 15.963999999999999 -23.348L22.464 -21.58Q23.919999999999998 -21.189999999999998 25.688 -20.552999999999997Q27.456 -19.916 29.081 -18.785Q30.706 -17.654 31.759 -15.808Q32.812 -13.962 32.812 -11.128Q32.812 -8.112 31.551 -5.8629999999999995Q30.29 -3.614 28.158 -2.145Q26.026 -0.6759999999999999 23.335 0.05199999999999999Q20.644 0.7799999999999999 17.784 0.7799999999999999Z"/></g><g fill="#EDF1F7" transform="translate(155.43 0.00)"><path d="M17.784 0.7799999999999999Q13.623999999999999 0.7799999999999999 10.283 -0.6890000000000001Q6.941999999999999 -2.158 4.797 -4.901Q2.6519999999999997 -7.643999999999999 2.08 -11.44L9.464 -12.532Q10.244 -9.308 12.687999999999999 -7.566Q15.132 -5.824 18.252 -5.824Q19.994 -5.824 21.631999999999998 -6.369999999999999Q23.27 -6.9159999999999995 24.323 -7.981999999999999Q25.375999999999998 -9.048 25.375999999999998 -10.607999999999999Q25.375999999999998 -11.18 25.207 -11.713Q25.038 -12.245999999999999 24.648 -12.713999999999999Q24.258 -13.181999999999999 23.543 -13.597999999999999Q22.828 -14.014 21.736 -14.351999999999999L12.011999999999999 -17.212Q10.92 -17.524 9.477 -18.096Q8.033999999999999 -18.668 6.6819999999999995 -19.734Q5.33 -20.8 4.433 -22.555Q3.536 -24.31 3.536 -26.988Q3.536 -30.758 5.434 -33.254Q7.332 -35.75 10.504 -36.971999999999994Q13.676 -38.193999999999996 17.524 -38.168Q21.398 -38.116 24.439999999999998 -36.842Q27.482 -35.568 29.536 -33.137Q31.59 -30.706 32.5 -27.195999999999998L24.855999999999998 -25.895999999999997Q24.439999999999998 -27.715999999999998 23.322 -28.964Q22.204 -30.212 20.657 -30.862Q19.11 -31.511999999999997 17.419999999999998 -31.564Q15.755999999999998 -31.616 14.286999999999999 -31.109Q12.818 -30.602 11.895 -29.64Q10.972 -28.677999999999997 10.972 -27.352Q10.972 -26.13 11.725999999999999 -25.363Q12.479999999999999 -24.596 13.623999999999999 -24.128Q14.767999999999999 -23.66 15.963999999999999 -23.348L22.464 -21.58Q23.919999999999998 -21.189999999999998 25.688 -20.552999999999997Q27.456 -19.916 29.081 -18.785Q30.706 -17.654 31.759 -15.808Q32.812 -13.962 32.812 -11.128Q32.812 -8.112 31.551 -5.8629999999999995Q30.29 -3.614 28.158 -2.145Q26.026 -0.6759999999999999 23.335 0.05199999999999999Q20.644 0.7799999999999999 17.784 0.7799999999999999Z"/></g><g fill="#EDF1F7" transform="translate(189.90 0.00)"><path d="M1.04 0.0 12.479999999999999 -37.44H23.035999999999998L34.476 0.0H27.195999999999998L17.003999999999998 -33.019999999999996H18.355999999999998L8.32 0.0ZM7.904 -7.8V-14.404H27.663999999999998V-7.8Z"/></g><g fill="#EDF1F7" transform="translate(225.00 0.00)"><path d="M3.6399999999999997 0.0V-37.44H9.984L22.36 -12.584L34.736 -37.44H41.08V0.0H34.476V-22.36L23.608 0.0H21.112L10.244 -22.36V0.0Z"/></g><g fill="#1FAE4C" transform="translate(269.31 0.00)"><path d="M4.784 0.0V-7.072H11.856V0.0Z"/><path d="M35.099999999999994 0.7799999999999999Q30.576 0.7799999999999999 27.144 -1.053Q23.712 -2.8859999999999997 21.788 -6.2139999999999995Q19.864 -9.542 19.864 -14.04V-37.388L27.04 -37.44V-14.091999999999999Q27.04 -12.245999999999999 27.664 -10.738Q28.288 -9.23 29.393 -8.138Q30.497999999999998 -7.045999999999999 31.967 -6.460999999999999Q33.436 -5.8759999999999994 35.099999999999994 -5.8759999999999994Q36.816 -5.8759999999999994 38.285 -6.474Q39.754 -7.072 40.846000000000004 -8.164Q41.938 -9.256 42.549 -10.764Q43.16 -12.272 43.16 -14.091999999999999V-37.44H50.336V-14.04Q50.336 -9.542 48.412 -6.2139999999999995Q46.488 -2.8859999999999997 43.056 -1.053Q39.623999999999995 0.7799999999999999 35.099999999999994 0.7799999999999999Z"/><path d="M56.16 0.0V-0.884L73.94399999999999 -30.836H57.72V-37.44H86.32V-36.556L68.64 -6.656H85.8V0.0Z"/></g><g fill="#9CAABF" transform="translate(0.00 26.00)"><path d="M0.8553999999999998 0.0V-8.798399999999999H2.1323899999999996V-4.69248L5.816719999999999 -8.798399999999999H7.405319999999999L3.5132499999999993 -4.503069999999999L7.6924899999999985 0.0H6.055009999999999L2.1323899999999996 -4.203679999999999V0.0Z"/><path d="M10.380889999999999 0.0 13.240369999999999 -8.798399999999999H15.079479999999997L17.938959999999998 0.0H16.61309L13.979679999999998 -8.02854H14.309619999999999L11.70676 0.0ZM11.865619999999998 -1.9857499999999997V-3.1833099999999996H16.46034V-1.9857499999999997Z"/><path d="M24.672179999999997 0.18329999999999996Q23.725129999999996 0.18329999999999996 22.964434999999995 -0.143585Q22.203739999999996 -0.47046999999999994 21.711884999999995 -1.078415Q21.220029999999994 -1.6863599999999999 21.073389999999996 -2.52343L22.405369999999994 -2.7250599999999996Q22.606999999999996 -1.9185399999999997 23.248549999999994 -1.4694549999999997Q23.890099999999997 -1.0203699999999998 24.745499999999996 -1.0203699999999998Q25.277069999999995 -1.0203699999999998 25.723099999999995 -1.1883949999999999Q26.169129999999996 -1.3564199999999997 26.441024999999996 -1.6710849999999997Q26.712919999999997 -1.9857499999999997 26.712919999999997 -2.4256699999999998Q26.712919999999997 -2.6639599999999994 26.630434999999995 -2.8472599999999995Q26.547949999999993 -3.0305599999999995 26.404364999999995 -3.1680349999999997Q26.260779999999997 -3.3055099999999995 26.056094999999996 -3.406325Q25.851409999999994 -3.5071399999999997 25.607009999999995 -3.5804599999999995L23.352419999999995 -4.246449999999999Q23.022479999999995 -4.3442099999999995 22.680319999999995 -4.500014999999999Q22.338159999999995 -4.655819999999999 22.054044999999995 -4.909384999999999Q21.769929999999995 -5.1629499999999995 21.592739999999996 -5.538715Q21.415549999999996 -5.914479999999999 21.415549999999996 -6.452159999999999Q21.415549999999996 -7.264789999999999 21.834084999999995 -7.829965Q22.252619999999997 -8.39514 22.967489999999998 -8.685365Q23.682359999999996 -8.975589999999999 24.568309999999997 -8.975589999999999Q25.460369999999994 -8.96337 26.166074999999992 -8.657869999999999Q26.871779999999994 -8.352369999999999 27.339194999999997 -7.781084999999999Q27.806609999999996 -7.209799999999999 27.983799999999995 -6.397169999999999L26.615159999999996 -6.1649899999999995Q26.523509999999995 -6.659899999999999 26.224119999999996 -7.017334999999999Q25.924729999999997 -7.374769999999999 25.490919999999996 -7.567234999999998Q25.057109999999994 -7.759699999999999 24.549979999999994 -7.765809999999999Q24.061179999999997 -7.7780299999999984 23.654864999999994 -7.619169999999999Q23.248549999999994 -7.460309999999999 23.007204999999995 -7.173139999999998Q22.765859999999996 -6.885969999999999 22.765859999999996 -6.513259999999999Q22.765859999999996 -6.146659999999999 22.979709999999997 -5.920589999999999Q23.193559999999994 -5.694519999999999 23.508224999999996 -5.563154999999999Q23.822889999999994 -5.4317899999999995 24.134499999999996 -5.3462499999999995L25.759759999999996 -4.887999999999999Q26.065259999999995 -4.802459999999999 26.453244999999995 -4.658874999999999Q26.841229999999996 -4.515289999999999 27.204774999999994 -4.2586699999999995Q27.568319999999993 -4.00205 27.806609999999992 -3.5774049999999997Q28.044899999999995 -3.1527599999999993 28.044899999999995 -2.5112099999999997Q28.044899999999995 -1.8452199999999996 27.776059999999994 -1.3411449999999998Q27.507219999999997 -0.8370699999999999 27.039804999999994 -0.49796499999999994Q26.572389999999995 -0.15885999999999997 25.961389999999994 0.012219999999999995Q25.350389999999997 0.18329999999999996 24.672179999999997 0.18329999999999996Z"/><path d="M34.979749999999996 0.18329999999999996Q34.03269999999999 0.18329999999999996 33.27200499999999 -0.143585Q32.511309999999995 -0.47046999999999994 32.019454999999994 -1.078415Q31.527599999999993 -1.6863599999999999 31.380959999999995 -2.52343L32.712939999999996 -2.7250599999999996Q32.91456999999999 -1.9185399999999997 33.55611999999999 -1.4694549999999997Q34.197669999999995 -1.0203699999999998 35.05306999999999 -1.0203699999999998Q35.58463999999999 -1.0203699999999998 36.03066999999999 -1.1883949999999999Q36.476699999999994 -1.3564199999999997 36.748594999999995 -1.6710849999999997Q37.020489999999995 -1.9857499999999997 37.020489999999995 -2.4256699999999998Q37.020489999999995 -2.6639599999999994 36.93800499999999 -2.8472599999999995Q36.85551999999999 -3.0305599999999995 36.711935 -3.1680349999999997Q36.568349999999995 -3.3055099999999995 36.363665 -3.406325Q36.15897999999999 -3.5071399999999997 35.914579999999994 -3.5804599999999995L33.65998999999999 -4.246449999999999Q33.33004999999999 -4.3442099999999995 32.98788999999999 -4.500014999999999Q32.64572999999999 -4.655819999999999 32.36161499999999 -4.909384999999999Q32.07749999999999 -5.1629499999999995 31.900309999999994 -5.538715Q31.723119999999994 -5.914479999999999 31.723119999999994 -6.452159999999999Q31.723119999999994 -7.264789999999999 32.14165499999999 -7.829965Q32.56018999999999 -8.39514 33.275059999999996 -8.685365Q33.989929999999994 -8.975589999999999 34.875879999999995 -8.975589999999999Q35.767939999999996 -8.96337 36.47364499999999 -8.657869999999999Q37.17934999999999 -8.352369999999999 37.64676499999999 -7.781084999999999Q38.11417999999999 -7.209799999999999 38.29136999999999 -6.397169999999999L36.922729999999994 -6.1649899999999995Q36.83107999999999 -6.659899999999999 36.53169 -7.017334999999999Q36.232299999999995 -7.374769999999999 35.798489999999994 -7.567234999999998Q35.36467999999999 -7.759699999999999 34.857549999999996 -7.765809999999999Q34.36874999999999 -7.7780299999999984 33.96243499999999 -7.619169999999999Q33.55611999999999 -7.460309999999999 33.314775 -7.173139999999998Q33.073429999999995 -6.885969999999999 33.073429999999995 -6.513259999999999Q33.073429999999995 -6.146659999999999 33.287279999999996 -5.920589999999999Q33.501129999999996 -5.694519999999999 33.815794999999994 -5.563154999999999Q34.13045999999999 -5.4317899999999995 34.442069999999994 -5.3462499999999995L36.06732999999999 -4.887999999999999Q36.37282999999999 -4.802459999999999 36.760814999999994 -4.658874999999999Q37.148799999999994 -4.515289999999999 37.512344999999996 -4.2586699999999995Q37.87588999999999 -4.00205 38.11417999999999 -3.5774049999999997Q38.35247 -3.1527599999999993 38.35247 -2.5112099999999997Q38.35247 -1.8452199999999996 38.08363 -1.3411449999999998Q37.814789999999995 -0.8370699999999999 37.347375 -0.49796499999999994Q36.87996 -0.15885999999999997 36.26895999999999 0.012219999999999995Q35.657959999999996 0.18329999999999996 34.979749999999996 0.18329999999999996Z"/><path d="M41.48689999999999 0.0 44.34637999999999 -8.798399999999999H46.185489999999994L49.04496999999999 0.0H47.71909999999999L45.08568999999999 -8.02854H45.41562999999999L42.81276999999999 0.0ZM42.97162999999999 -1.9857499999999997V-3.1833099999999996H47.56634999999999V-1.9857499999999997Z"/><path d="M59.54194999999999 0.0 56.682469999999995 -8.798399999999999H58.00833999999999L60.44622999999999 -1.2892099999999997L62.914669999999994 -8.798399999999999H64.24054L61.38105999999999 0.0Z"/><path d="M66.99004 0.0 69.84952 -8.798399999999999H71.68862999999999L74.54811 0.0H73.22224L70.58882999999999 -8.02854H70.91877L68.31590999999999 0.0ZM68.47476999999999 -1.9857499999999997V-3.1833099999999996H73.06948999999999V-1.9857499999999997Z"/><path d="M86.65202 0.18329999999999996Q85.33226 0.18329999999999996 84.40353999999999 -0.394095Q83.47482 -0.9714899999999999 82.98296500000001 -2.0040799999999996Q82.49111 -3.0366699999999995 82.49111 -4.3991999999999996Q82.49111 -5.761729999999999 82.98296500000001 -6.794319999999999Q83.47482 -7.826909999999999 84.40353999999999 -8.404304999999999Q85.33226 -8.981699999999998 86.65202 -8.981699999999998Q88.17341 -8.981699999999998 89.172395 -8.211839999999999Q90.17138 -7.441979999999999 90.56242 -6.140549999999999L89.2671 -5.792279999999999Q89.01048 -6.714889999999999 88.353655 -7.240349999999999Q87.69683 -7.765809999999999 86.65202 -7.765809999999999Q85.71719 -7.765809999999999 85.09397 -7.344219999999999Q84.47075 -6.922629999999999 84.15608499999999 -6.1649899999999995Q83.84142 -5.407349999999999 83.84142 -4.3991999999999996Q83.83531 -3.3910499999999995 84.14997500000001 -2.6334099999999996Q84.46464 -1.8757699999999997 85.090915 -1.4541799999999998Q85.71719 -1.03259 86.65202 -1.03259Q87.69683 -1.03259 88.353655 -1.5611049999999997Q89.01048 -2.0896199999999996 89.2671 -3.0061199999999997L90.56242 -2.65785Q90.17138 -1.3564199999999997 89.172395 -0.5865599999999999Q88.17341 0.18329999999999996 86.65202 0.18329999999999996Z"/><path d="M94.35062 0.0V-8.798399999999999H97.90664000000001Q98.03495000000001 -8.798399999999999 98.22436 -8.789234999999998Q98.41377 -8.780069999999998 98.58485 -8.749519999999999Q99.31805 -8.633429999999999 99.809905 -8.2485Q100.30176 -7.863569999999999 100.54616 -7.277009999999999Q100.79056 -6.690449999999999 100.79056 -5.9816899999999995Q100.79056 -4.930769999999999 100.25288 -4.170074999999999Q99.7152 -3.4093799999999996 98.63984 -3.2199699999999996L98.12049 -3.1588699999999994H95.62761V0.0ZM99.49524 0.0 97.76 -3.5804599999999995 99.04921 -3.910399999999999 100.95553 0.0ZM95.62761 -4.36865H97.85776Q97.97996 -4.36865 98.12965500000001 -4.38087Q98.27935000000001 -4.393089999999999 98.41377 -4.42364Q98.80481 -4.515289999999999 99.04310000000001 -4.762744999999999Q99.28139 -5.010199999999999 99.38526 -5.334029999999999Q99.48913 -5.6578599999999994 99.48913 -5.9816899999999995Q99.48913 -6.305519999999999 99.38526 -6.626294999999999Q99.28139 -6.947069999999999 99.04310000000001 -7.194524999999999Q98.80481 -7.441979999999999 98.41377 -7.533629999999999Q98.27935000000001 -7.570289999999999 98.12965500000001 -7.582509999999999Q97.97996 -7.594729999999999 97.85776 -7.594729999999999H95.62761Z"/><path d="M104.74373000000001 0.0V-8.798399999999999H105.89852L109.08794 -2.1812699999999996L112.25903000000001 -8.798399999999999H113.42604000000001V-0.006109999999999999H112.21626V-6.0244599999999995L109.37511 0.0H108.79466000000001L105.94740000000002 -6.0244599999999995V0.0Z"/><path d="M124.66233000000001 0.0V-7.594729999999999H121.73564000000002V-8.798399999999999H128.86601000000002V-7.594729999999999H125.93932000000001V0.0Z"/><path d="M132.40981 0.0V-8.798399999999999H133.6868V0.0Z"/><path d="M137.71939999999998 0.0V-0.20162999999999998L142.21024999999997 -7.594729999999999H137.9638V-8.798399999999999H144.40374V-8.590659999999998L139.93732999999997 -1.2097799999999999H144.32431V0.0Z"/><path d="M148.43633999999997 0.0V-8.798399999999999H149.71332999999998V0.0Z"/><path d="M153.99032999999997 0.0V-8.798399999999999H155.14511999999996L158.33453999999998 -2.1812699999999996L161.50562999999997 -8.798399999999999H162.67263999999997V-0.006109999999999999H161.46285999999998V-6.0244599999999995L158.62170999999998 0.0H158.04125999999997L155.19399999999996 -6.0244599999999995V0.0Z"/><path d="M166.94963999999996 0.0V-8.798399999999999H168.22662999999997V0.0Z"/></g></g></svg>